<svg width="20" height="20" viewBox="0 0 20 20" fill="none" xmlns="http://www.w3.org/2000/svg">
<path d="M16.668 3.33398H3.33464C2.41797 3.33398 1.6763 4.08398 1.6763 5.00065L1.66797 15.0007C1.66797 15.9173 2.41797 16.6673 3.33464 16.6673H16.668C17.5846 16.6673 18.3346 15.9173 18.3346 15.0007V5.00065C18.3346 4.08398 17.5846 3.33398 16.668 3.33398ZM16.3346 6.87565L10.443 10.559C10.1763 10.7257 9.8263 10.7257 9.55964 10.559L3.66797 6.87565C3.58441 6.82874 3.51123 6.76537 3.45288 6.68936C3.39452 6.61336 3.35219 6.5263 3.32845 6.43346C3.30471 6.34062 3.30005 6.24393 3.31477 6.14924C3.32948 6.05455 3.36325 5.96383 3.41404 5.88257C3.46482 5.80131 3.53157 5.7312 3.61024 5.67648C3.68891 5.62176 3.77786 5.58358 3.87171 5.56423C3.96557 5.54489 4.06237 5.54479 4.15626 5.56394C4.25016 5.58309 4.33919 5.6211 4.41797 5.67565L10.0013 9.16732L15.5846 5.67565C15.6634 5.6211 15.7524 5.58309 15.8463 5.56394C15.9402 5.54479 16.037 5.54489 16.1309 5.56423C16.2247 5.58358 16.3137 5.62176 16.3924 5.67648C16.471 5.7312 16.5378 5.80131 16.5886 5.88257C16.6394 5.96383 16.6731 6.05455 16.6878 6.14924C16.7025 6.24393 16.6979 6.34062 16.6742 6.43346C16.6504 6.5263 16.6081 6.61336 16.5497 6.68936C16.4914 6.76537 16.4182 6.82874 16.3346 6.87565Z" fill="#61BCC3"/>
</svg>
