<svg width="25" height="24" viewBox="0 0 25 24" fill="none" xmlns="http://www.w3.org/2000/svg">
<path d="M2.58667 11.2192L2.25141 10.8482C2.09796 10.9869 2.04574 11.2058 2.12005 11.3988C2.19435 11.5918 2.37983 11.7192 2.58667 11.7192V11.2192ZM12.4842 2.27393L12.8472 1.93014L12.5113 1.57543L12.1489 1.90298L12.4842 2.27393ZM16.894 6.93081L16.5309 7.2746L17.394 8.18602V6.93081H16.894ZM16.894 4.48512L17.1816 4.07614C17.0289 3.96877 16.8292 3.95537 16.6636 4.04138C16.4979 4.12739 16.394 4.29849 16.394 4.48512H16.894ZM19.4745 8.70645H18.9745V8.92115L19.1302 9.06901L19.4745 8.70645ZM22.1204 11.2192V11.7192C22.325 11.7192 22.5089 11.5945 22.5847 11.4045C22.6606 11.2145 22.613 10.9975 22.4647 10.8566L22.1204 11.2192ZM19.4745 11.2192V10.7192H18.9745V11.2192H19.4745ZM19.4745 19.9298V20.4298H19.9745V19.9298H19.4745ZM14.7054 19.9298L14.5484 20.4045L14.6248 20.4298H14.7054V19.9298ZM11.2084 17.9782L11.4764 17.5562L10.5042 16.9387L10.717 18.0706L11.2084 17.9782ZM13.9541 22.3085L13.9541 22.8085L15.537 22.8085L14.2413 21.8992L13.9541 22.3085ZM8.30307 19.6618L8.75789 19.4541L8.13297 18.0856L7.8144 19.5559L8.30307 19.6618ZM9.34835 22.61L9.20459 23.0889L10.4516 23.4632L9.7757 22.3505L9.34835 22.61ZM5.95118 19.6618L6.42527 19.5029L6.31094 19.1618H5.95118V19.6618ZM5.26522 19.6618H4.76522V20.1618H5.26522V19.6618ZM5.26522 11.2192H5.76522V10.7192H5.26522V11.2192ZM19.9745 6.48167C19.9745 6.20553 19.7506 5.98167 19.4745 5.98167C19.1984 5.98167 18.9745 6.20553 18.9745 6.48167H19.9745ZM18.6465 5.30073C18.9191 5.25648 19.1042 4.99965 19.0599 4.72707C19.0157 4.4545 18.7589 4.2694 18.4863 4.31365L18.6465 5.30073ZM2.92193 11.5901L12.8194 2.64487L12.1489 1.90298L2.25141 10.8482L2.92193 11.5901ZM12.1211 2.61772L16.5309 7.2746L17.257 6.58702L12.8472 1.93014L12.1211 2.61772ZM17.394 6.93081V4.48512H16.394V6.93081H17.394ZM19.1302 9.06901L21.7761 11.5817L22.4647 10.8566L19.8188 8.34389L19.1302 9.06901ZM22.1204 10.7192H19.4745V11.7192H22.1204V10.7192ZM18.9745 11.2192V19.9298H19.9745V11.2192H18.9745ZM19.4745 19.4298H14.7054V20.4298H19.4745V19.4298ZM14.8625 19.4551C14.4167 19.3076 13.6438 18.8846 12.9153 18.4511C12.2032 18.0273 11.591 17.6289 11.4764 17.5562L10.9403 18.4003C11.0455 18.4671 11.6756 18.877 12.4039 19.3104C13.1158 19.7341 13.9816 20.217 14.5484 20.4045L14.8625 19.4551ZM10.717 18.0706C10.9023 19.0564 11.5276 21.2165 13.6669 22.7178L14.2413 21.8992C12.4085 20.613 11.8629 18.7539 11.6998 17.8859L10.717 18.0706ZM13.9541 21.8085C13.2603 21.8085 12.1479 21.6827 11.1047 21.3085C10.052 20.9309 9.15981 20.3343 8.75789 19.4541L7.84824 19.8695C8.4132 21.1067 9.60609 21.8334 10.7671 22.2498C11.9375 22.6696 13.1672 22.8085 13.9541 22.8085L13.9541 21.8085ZM7.8144 19.5559C7.75524 19.829 7.79561 20.2541 7.94908 20.7768C8.10861 21.32 8.4058 22.0213 8.921 22.8696L9.7757 22.3505C9.29788 21.5638 9.03976 20.9418 8.90857 20.495C8.84292 20.2714 8.81006 20.0952 8.79637 19.9668C8.78953 19.9026 8.78775 19.853 8.78841 19.8172C8.7891 19.7797 8.79232 19.7649 8.79173 19.7677L7.8144 19.5559ZM9.4921 22.1311C9.09645 22.0124 8.44313 21.7287 7.82656 21.2757C7.20884 20.8219 6.66843 20.2284 6.42527 19.5029L5.4771 19.8207C5.80885 20.8105 6.52059 21.5571 7.23452 22.0816C7.94959 22.6069 8.7074 22.9397 9.20459 23.0889L9.4921 22.1311ZM5.95118 19.1618H5.26522V20.1618H5.95118V19.1618ZM5.76522 19.6618V11.2192H4.76522V19.6618H5.76522ZM5.26522 10.7192H2.58667V11.7192H5.26522V10.7192ZM18.9745 6.48167V8.70645H19.9745V6.48167H18.9745ZM16.6063 4.8941C16.9793 5.1564 17.7398 5.44791 18.6465 5.30073L18.4863 4.31365C17.8626 4.41489 17.3627 4.20349 17.1816 4.07614L16.6063 4.8941Z" fill="#EAEAEA"/>
</svg>
