<svg width="23" height="22" viewBox="0 0 23 22" fill="none" xmlns="http://www.w3.org/2000/svg">
<path d="M16.1012 2.35053C14.7287 1.64894 13.1627 1.25146 11.5003 1.25146C6.07597 1.25146 1.67871 5.48304 1.67871 10.7029C1.67871 15.9229 6.07597 20.1544 11.5003 20.1544C16.9245 20.1544 21.3218 15.9229 21.3218 10.7029C21.3218 8.33093 20.4138 6.163 18.914 4.50348M13.8662 7.56908C13.8662 8.68354 12.6715 10.8732 11.5311 10.8732C10.3908 10.8732 9.26753 8.68354 9.26753 7.56908C9.26753 6.45462 10.3908 5.53929 11.5311 5.53929C12.6715 5.53929 13.8662 6.45462 13.8662 7.56908ZM15.6129 17.5838C15.6129 19.8919 13.8014 20.1528 11.5669 20.1528C9.3323 20.1528 7.52082 19.8919 7.52082 17.5838C7.52082 15.2756 9.3323 13.4044 11.5669 13.4044C13.8014 13.4044 15.6129 15.2756 15.6129 17.5838Z" stroke="white" stroke-width="2" stroke-linecap="round" stroke-linejoin="round"/>
</svg>
