<svg width="20" height="20" viewBox="0 0 20 20" fill="none" xmlns="http://www.w3.org/2000/svg">
<path d="M9.54269 15.7346C10.1902 14.9539 10.5752 13.9667 10.5752 12.8987C10.5752 10.35 8.42269 8.28593 5.76269 8.28593C4.7477 8.28593 3.81145 8.58208 3.0327 9.10259C3.00645 8.87823 2.99775 8.65384 2.99775 8.42051C2.99775 4.33717 6.454 1.02563 10.724 1.02563M9.54269 15.7346C8.67644 16.8116 7.30269 17.5026 5.76269 17.5026L3.47894 18.8936C3.09394 19.1359 2.60395 18.8039 2.65645 18.3462L2.87519 16.5782C1.70269 15.7436 0.950195 14.4064 0.950195 12.8987C0.950195 12.6295 0.976445 12.3693 1.0202 12.118M9.54269 15.7346C9.92769 15.7885 10.3215 15.8154 10.724 15.8154L14.3903 18.05C15.0115 18.4359 15.7903 17.9154 15.7028 17.1705L15.3615 14.3346C17.234 12.9885 18.4503 10.8436 18.4503 8.42051C18.4503 5.66538 16.8753 3.26025 14.5303 1.98589" stroke="white" stroke-width="1.5" stroke-linecap="round" stroke-linejoin="round"/>
</svg>
