<svg width="20" height="20" viewBox="0 0 20 20" fill="none" xmlns="http://www.w3.org/2000/svg">
<path d="M9.54245 15.7346C10.1899 14.9539 10.575 13.9667 10.575 12.8987C10.575 10.35 8.42245 8.28593 5.76245 8.28593C4.74745 8.28593 3.8112 8.58208 3.03245 9.10259C3.0062 8.87823 2.99751 8.65384 2.99751 8.42051C2.99751 4.33717 6.45376 1.02563 10.7238 1.02563M9.54245 15.7346C8.6762 16.8116 7.30245 17.5026 5.76245 17.5026L3.4787 18.8936C3.0937 19.1359 2.6037 18.8039 2.6562 18.3462L2.87495 16.5782C1.70245 15.7436 0.949951 14.4064 0.949951 12.8987C0.949951 12.6295 0.976201 12.3693 1.01995 12.118M9.54245 15.7346C9.92745 15.7885 10.3213 15.8154 10.7238 15.8154L14.39 18.05C15.0113 18.4359 15.79 17.9154 15.7025 17.1705L15.3613 14.3346C17.2338 12.9885 18.45 10.8436 18.45 8.42051C18.45 5.66538 16.875 3.26025 14.53 1.98589" stroke="white" stroke-width="1.5" stroke-linecap="round" stroke-linejoin="round"/>
</svg>
